<?xml version="1.0" encoding="UTF-8"?>
<svg width="32" height="32" viewBox="0 0 32 32" fill="none" xmlns="http://www.w3.org/2000/svg">
    <!-- 忍者面具背景 -->
    <circle cx="16" cy="16" r="15" fill="#1E1E1E" stroke="#8B5CF6" stroke-width="2"/>
    
    <!-- 忍者面具眼睛 -->
    <path d="M10 14C10 12.8954 10.8954 12 12 12H13C14.1046 12 15 12.8954 15 14V15C15 16.1046 14.1046 17 13 17H12C10.8954 17 10 16.1046 10 15V14Z" fill="#8B5CF6"/>
    <path d="M17 14C17 12.8954 17.8954 12 19 12H20C21.1046 12 22 12.8954 22 14V15C22 16.1046 21.1046 17 20 17H19C17.8954 17 17 16.1046 17 15V14Z" fill="#8B5CF6"/>
    
    <!-- 忍者头带 -->
    <path d="M4 12C4 11.4477 4.44772 11 5 11H27C27.5523 11 28 11.4477 28 12C28 12.5523 27.5523 13 27 13H5C4.44772 13 4 12.5523 4 12Z" fill="#8B5CF6"/>
    
    <!-- 头带飘带 -->
    <path d="M26 11C26 11 28 9 29 8" stroke="#8B5CF6" stroke-width="2" stroke-linecap="round"/>
    <path d="M26 13C26 13 28 15 29 16" stroke="#8B5CF6" stroke-width="2" stroke-linecap="round"/>
</svg>
